<?xml version="1.0" encoding="UTF-8" standalone="no"?>
<svg
   xmlns:dc="http://purl.org/dc/elements/1.1/"
   xmlns:cc="http://creativecommons.org/ns#"
   xmlns:rdf="http://www.w3.org/1999/02/22-rdf-syntax-ns#"
   xmlns:svg="http://www.w3.org/2000/svg"
   xmlns="http://www.w3.org/2000/svg"
   xmlns:sodipodi="http://sodipodi.sourceforge.net/DTD/sodipodi-0.dtd"
   xmlns:inkscape="http://www.inkscape.org/namespaces/inkscape"
   version="1.1"
   id="svg2"
   viewBox="0 0 354.33071 265.74804"
   height="75mm"
   width="100mm"
   sodipodi:docname="100x75.svg"
   inkscape:version="0.92.3 (2405546, 2018-03-11)">
  <sodipodi:namedview
     pagecolor="#ffffff"
     bordercolor="#666666"
     borderopacity="1"
     objecttolerance="10"
     gridtolerance="10"
     guidetolerance="10"
     inkscape:pageopacity="0"
     inkscape:pageshadow="2"
     inkscape:window-width="1562"
     inkscape:window-height="847"
     id="namedview7"
     showgrid="false"
     fit-margin-top="0"
     fit-margin-left="0"
     fit-margin-right="0"
     fit-margin-bottom="0"
     inkscape:zoom="1.1944048"
     inkscape:cx="224.57526"
     inkscape:cy="215.01459"
     inkscape:window-x="52"
     inkscape:window-y="91"
     inkscape:window-maximized="0"
     inkscape:current-layer="board"
     inkscape:snap-bbox="true"
     showguides="true"
     inkscape:guide-bbox="true"
     inkscape:bbox-paths="true"
     inkscape:bbox-nodes="true"
     inkscape:snap-bbox-edge-midpoints="true"
     inkscape:snap-bbox-midpoints="true">
    <sodipodi:guide
       position="3.1958008e-06,185.23871"
       orientation="1,0"
       id="guide818"
       inkscape:locked="false" />
    <sodipodi:guide
       position="93.011808,265.74804"
       orientation="0,1"
       id="guide824"
       inkscape:locked="false" />
    <sodipodi:guide
       position="10.629924,255.11812"
       orientation="0,1"
       id="guide826"
       inkscape:locked="false" />
    <sodipodi:guide
       position="10.629924,255.11812"
       orientation="1,0"
       id="guide828"
       inkscape:locked="false" />
    <sodipodi:guide
       position="354.33072,136.96676"
       orientation="1,0"
       id="guide830"
       inkscape:locked="false" />
    <sodipodi:guide
       position="343.7008,260.43308"
       orientation="1,0"
       id="guide832"
       inkscape:locked="false" />
  </sodipodi:namedview>
  <defs
     id="defs4" />
  <g
     transform="translate(-101.78571,-171.1122)"
     id="board">
    <path
       style="opacity:1;fill:#9dac93;fill-opacity:1;stroke:none;stroke-width:18.89763832;stroke-linecap:round;stroke-linejoin:miter;stroke-miterlimit:4;stroke-dasharray:none;stroke-dashoffset:0;stroke-opacity:1;paint-order:markers stroke fill"
       d="M 18.898438 0 C 8.4291457 0 0 8.4291457 0 18.898438 L 0 264.56641 C 0 275.0357 8.4291457 283.46484 18.898438 283.46484 L 359.05469 283.46484 C 369.52398 283.46484 377.95312 275.0357 377.95312 264.56641 L 377.95312 18.898438 C 377.95313 8.4291457 369.52398 0 359.05469 0 L 18.898438 0 z M 22.677734 11.337891 L 56.693359 11.337891 C 62.974934 11.337891 68.03125 16.39616 68.03125 22.677734 C 68.03125 28.959309 62.974934 34.015625 56.693359 34.015625 L 22.677734 34.015625 C 16.39616 34.015625 11.337891 28.959309 11.337891 22.677734 C 11.337891 16.39616 16.39616 11.337891 22.677734 11.337891 z M 321.25977 11.337891 L 355.27539 11.337891 C 361.55697 11.337891 366.61328 16.39616 366.61328 22.677734 C 366.61328 28.959309 361.55697 34.015625 355.27539 34.015625 L 321.25977 34.015625 C 314.97819 34.015625 309.92188 28.959309 309.92188 22.677734 C 309.92188 16.39616 314.97819 11.337891 321.25977 11.337891 z "
       transform="matrix(0.93750001,0,0,0.93750001,101.78571,171.1122)"
       id="rect7" />
  </g>
  <metadata
     id="metadata13">
    <rdf:RDF>
      <cc:Work
         rdf:about="">
        <dc:title />
        <dc:format>image/svg+xml</dc:format>
        <dc:type
           rdf:resource="http://purl.org/dc/dcmitype/StillImage" />
      </cc:Work>
    </rdf:RDF>
  </metadata>
</svg>
